<svg width="46" height="46" viewBox="0 0 46 46" fill="none" xmlns="http://www.w3.org/2000/svg">
<path d="M43.025 0.5H2.975C2.31859 0.5 1.68906 0.760758 1.22491 1.22491C0.760758 1.68906 0.5 2.31859 0.5 2.975V43.025C0.5 43.6814 0.760758 44.3109 1.22491 44.7751C1.68906 45.2392 2.31859 45.5 2.975 45.5H24.53V28.0625H18.68V21.3125H24.53V16.25C24.4088 15.0615 24.5491 13.8608 24.9411 12.7322C25.3331 11.6036 25.9672 10.5745 26.799 9.71693C27.6309 8.85937 28.6402 8.19419 29.7564 7.76804C30.8725 7.34188 32.0683 7.16507 33.26 7.25C35.0112 7.23922 36.7616 7.32937 38.5025 7.52V13.595H34.925C32.09 13.595 31.55 14.945 31.55 16.9025V21.245H38.3L37.4225 27.995H31.55V45.5H43.025C43.35 45.5 43.6719 45.436 43.9721 45.3116C44.2724 45.1872 44.5453 45.0049 44.7751 44.7751C45.0049 44.5453 45.1872 44.2724 45.3116 43.9721C45.436 43.6719 45.5 43.35 45.5 43.025V2.975C45.5 2.64998 45.436 2.32814 45.3116 2.02786C45.1872 1.72758 45.0049 1.45474 44.7751 1.22491C44.5453 0.995086 44.2724 0.812779 43.9721 0.688398C43.6719 0.564018 43.35 0.5 43.025 0.5Z" fill="#102542"/>
</svg>
