<svg width="46" height="46" viewBox="0 0 46 46" fill="none" xmlns="http://www.w3.org/2000/svg">
<path d="M23 16.25C21.2098 16.25 19.4929 16.9612 18.227 18.227C16.9612 19.4929 16.25 21.2098 16.25 23C16.25 24.7902 16.9612 26.5071 18.227 27.773C19.4929 29.0388 21.2098 29.75 23 29.75C24.7902 29.75 26.5071 29.0388 27.773 27.773C29.0388 26.5071 29.75 24.7902 29.75 23C29.75 21.2098 29.0388 19.4929 27.773 18.227C26.5071 16.9612 24.7902 16.25 23 16.25ZM23 11.75C25.9837 11.75 28.8452 12.9353 30.955 15.045C33.0647 17.1548 34.25 20.0163 34.25 23C34.25 25.9837 33.0647 28.8452 30.955 30.955C28.8452 33.0647 25.9837 34.25 23 34.25C20.0163 34.25 17.1548 33.0647 15.045 30.955C12.9353 28.8452 11.75 25.9837 11.75 23C11.75 20.0163 12.9353 17.1548 15.045 15.045C17.1548 12.9353 20.0163 11.75 23 11.75ZM37.625 11.1875C37.625 11.9334 37.3287 12.6488 36.8012 13.1762C36.2738 13.7037 35.5584 14 34.8125 14C34.0666 14 33.3512 13.7037 32.8238 13.1762C32.2963 12.6488 32 11.9334 32 11.1875C32 10.4416 32.2963 9.72621 32.8238 9.19876C33.3512 8.67132 34.0666 8.375 34.8125 8.375C35.5584 8.375 36.2738 8.67132 36.8012 9.19876C37.3287 9.72621 37.625 10.4416 37.625 11.1875ZM23 5C17.4335 5 16.5245 5.01575 13.9348 5.1305C12.1708 5.21375 10.9872 5.45 9.88925 5.8775C8.97039 6.21486 8.13968 6.75559 7.45925 7.45925C6.75502 8.13965 6.21354 8.97031 5.87525 9.88925C5.44775 10.9917 5.2115 12.173 5.1305 13.9348C5.0135 16.4188 4.99775 17.2873 4.99775 23C4.99775 28.5688 5.0135 29.4755 5.12825 32.0652C5.2115 33.827 5.44775 35.0127 5.873 36.1085C6.2555 37.0872 6.7055 37.7915 7.4525 38.5385C8.21075 39.2945 8.915 39.7467 9.8825 40.1202C10.994 40.55 12.1775 40.7885 13.9325 40.8695C16.4165 40.9865 17.285 41 22.9978 41C28.5665 41 29.4732 40.9842 32.063 40.8695C33.8225 40.7862 35.006 40.55 36.1063 40.1247C37.0243 39.7857 37.8546 39.2452 38.5363 38.543C39.2945 37.787 39.7468 37.0827 40.1203 36.113C40.5478 35.006 40.7863 33.8225 40.8672 32.063C40.9842 29.5812 40.9977 28.7105 40.9977 23C40.9977 17.4335 40.982 16.5245 40.8672 13.9348C40.784 12.1753 40.5455 10.9872 40.1203 9.88925C39.7811 8.97129 39.2406 8.14096 38.5385 7.45925C37.8584 6.75465 37.0276 6.21313 36.1085 5.87525C35.006 5.44775 33.8225 5.2115 32.063 5.1305C29.5812 5.0135 28.715 5 23 5ZM23 0.5C29.1133 0.5 29.876 0.5225 32.2768 0.635C34.6708 0.7475 36.3043 1.12325 37.7375 1.68125C39.2225 2.25275 40.4735 3.02675 41.7245 4.2755C42.8686 5.40027 43.7539 6.76082 44.3188 8.2625C44.8745 9.69575 45.2525 11.3292 45.365 13.7255C45.4708 16.124 45.5 16.8867 45.5 23C45.5 29.1133 45.4775 29.876 45.365 32.2745C45.2525 34.6707 44.8745 36.302 44.3188 37.7375C43.7555 39.24 42.87 40.6008 41.7245 41.7245C40.5994 42.8682 39.2389 43.7534 37.7375 44.3188C36.3043 44.8745 34.6708 45.2525 32.2768 45.365C29.876 45.4708 29.1133 45.5 23 45.5C16.8867 45.5 16.124 45.4775 13.7232 45.365C11.3292 45.2525 9.698 44.8745 8.2625 44.3188C6.76023 43.7551 5.39944 42.8696 4.2755 41.7245C3.13122 40.5999 2.24591 39.2393 1.68125 37.7375C1.12325 36.3042 0.7475 34.6707 0.635 32.2745C0.527 29.876 0.5 29.1133 0.5 23C0.5 16.8867 0.5225 16.124 0.635 13.7255C0.7475 11.327 1.12325 9.698 1.68125 8.2625C2.24428 6.7599 3.12981 5.39897 4.2755 4.2755C5.39976 3.13077 6.76047 2.24539 8.2625 1.68125C9.69575 1.12325 11.327 0.7475 13.7232 0.635C16.124 0.52925 16.8867 0.5 23 0.5Z" fill="#102542"/>
</svg>
