<svg width="30" height="34" viewBox="0 0 30 34" fill="none" xmlns="http://www.w3.org/2000/svg">
<path d="M23.825 5.4125C22.5433 3.94929 21.837 2.07019 21.8375 0.125H16.0437V23.375C15.9991 24.6332 15.4679 25.8249 14.5621 26.6993C13.6562 27.5736 12.4465 28.0623 11.1875 28.0625C8.525 28.0625 6.3125 25.8875 6.3125 23.1875C6.3125 19.9625 9.425 17.5437 12.6312 18.5375V12.6125C6.1625 11.75 0.5 16.775 0.5 23.1875C0.5 29.4312 5.675 33.875 11.1688 33.875C17.0563 33.875 21.8375 29.0938 21.8375 23.1875V11.3938C24.1869 13.081 27.0076 13.9862 29.9 13.9813V8.1875C29.9 8.1875 26.375 8.35625 23.825 5.4125Z" fill="#102542"/>
</svg>
