<svg width="648" height="468" viewBox="0 0 648 468" fill="none" xmlns="http://www.w3.org/2000/svg">
<g clip-path="url(#clip0_3_672)">
<path d="M648 453.478C648.009 445.38 595.742 438.752 531.258 438.673C466.774 438.595 414.491 445.096 414.481 453.194C414.471 461.293 466.738 467.921 531.222 467.999C595.707 468.078 647.99 461.576 648 453.478Z" fill="#3F3D56"/>
<path opacity="0.1" d="M617.405 453.441C617.412 447.465 578.841 442.573 531.254 442.516C483.666 442.458 445.083 447.255 445.076 453.232C445.068 459.208 483.64 464.099 531.227 464.157C578.815 464.215 617.398 459.417 617.405 453.441Z" fill="black"/>
<path d="M492.24 404.352L494.174 429.885C494.174 429.885 479.994 455.006 494.93 454.631C509.866 454.256 511.047 452.687 511.047 452.687L511.057 444.831L511.078 427.942L506.786 402.013L492.24 404.352Z" fill="#2F2E41"/>
<path d="M551.583 410.708C551.583 410.708 555.108 421.318 552.348 428.385C549.588 435.451 548.389 451.947 550.354 452.342C552.318 452.737 561.749 454.712 561.749 454.712C561.749 454.712 584.536 462.596 594.366 459.465C604.196 456.335 602.63 451.62 602.63 451.62C602.63 451.62 600.28 444.94 592.812 444.538C585.345 444.136 568.085 415.835 567.7 409.55C567.314 403.265 551.583 410.708 551.583 410.708Z" fill="#2F2E41"/>
<path d="M502.694 84.8365C522.014 84.8365 537.676 69.1855 537.676 49.8789C537.676 30.5724 522.014 14.9214 502.694 14.9214C483.375 14.9214 467.713 30.5724 467.713 49.8789C467.713 69.1855 483.375 84.8365 502.694 84.8365Z" fill="#FF6584"/>
<path d="M490.286 72.4487C490.286 72.4487 493.409 89.7349 483.97 94.4368C474.531 99.1387 501.641 108.206 501.641 108.206L513.436 105.078L520.923 88.9828C520.923 88.9828 511.491 88.1858 513.867 74.0485L490.286 72.4487Z" fill="#FFB9B9"/>
<path opacity="0.1" d="M490.286 72.4487C490.286 72.4487 493.409 89.7349 483.97 94.4368C474.531 99.1387 501.641 108.206 501.641 108.206L513.436 105.078L520.923 88.9828C520.923 88.9828 511.491 88.1858 513.867 74.0485L490.286 72.4487Z" fill="black"/>
<path d="M454.054 131.322L453.222 169.028L443.317 233.432C443.317 233.432 443.67 266.819 453.887 268.795C464.104 270.772 453.93 233.052 453.93 233.052L468.747 179.754L471.739 133.307L454.054 131.322Z" fill="#FFB9B9"/>
<path d="M501.503 81.6929C513.877 81.6929 523.907 71.6692 523.907 59.3043C523.907 46.9395 513.877 36.9158 501.503 36.9158C489.13 36.9158 479.1 46.9395 479.1 59.3043C479.1 71.6692 489.13 81.6929 501.503 81.6929Z" fill="#FFB9B9"/>
<path d="M536.545 171.486C540.468 178.168 539.279 186.022 534.956 186.017C530.632 186.012 472.469 178.871 472.469 178.871L476.023 165.521C476.023 165.521 472.492 160.017 474.855 156.485C477.218 152.953 472.514 141.949 472.514 141.949L463.526 99.1253L468.245 97.6463L476.105 95.1853L484.759 92.4739C484.759 92.4739 490.644 101.122 505.19 98.3904C505.19 98.3904 514.229 99.5797 519.353 87.8025C520.456 87.8206 521.554 87.9603 522.627 88.2189C523.715 88.503 524.772 88.9796 525.246 89.7736C525.721 90.5636 528.484 91.1051 531.62 91.4664C536.277 92.0023 541.752 92.1503 541.752 92.1503L537.375 135.744C537.375 135.744 532.623 164.804 536.545 171.486Z" fill="#F87060"/>
<path d="M466.67 99.1293L463.526 99.1255C463.526 99.1255 450.936 109.323 452.479 133.677C452.479 133.677 453.655 136.035 462.693 137.617C471.731 139.199 475.667 135.276 475.667 135.276L466.67 99.1293Z" fill="#F87060"/>
<path d="M525.593 127.874C525.593 127.874 475.287 124.67 475.672 130.563C476.058 136.455 472.505 149.805 474.074 152.164C475.643 154.522 477.545 164.189 475.207 168.584C473.806 171.21 472.754 174.008 472.079 176.907C472.079 176.907 468.935 176.117 466.565 185.934C464.195 195.751 452.369 224.016 457.068 238.555C461.767 253.094 476.983 345.809 476.983 345.809L487.128 406.702C487.128 406.702 504.025 409.865 509.929 403.588L504.513 332.095L500.677 254.319C500.677 254.319 526.919 329.765 530.847 332.127L546.865 412.274C546.865 412.274 564.937 418.58 571.238 408.376L563.842 349.842C563.842 349.842 559.532 338.446 561.111 332.556C562.691 326.667 558.372 322.341 558.372 322.341L542.358 239.444C542.358 239.444 537.653 230.012 541.592 222.947C545.531 215.881 534.565 183.66 534.565 183.66C534.565 183.66 527.51 167.154 529.88 157.731C532.25 148.307 525.593 127.874 525.593 127.874Z" fill="#2F2E41"/>
<path d="M553.506 122.409L561.313 166.803C561.313 166.803 562.484 173.481 558.933 184.475C555.382 195.469 541.594 221.768 541.594 221.768L534.534 209.191L546.374 169.141L536.605 122.388L553.506 122.409Z" fill="#FFB9B9"/>
<path d="M483.536 128.215L476.213 131.95L468.23 108.951L468.244 97.6464L476.105 95.1855L477.276 104.641L483.536 128.215Z" fill="#2F2E41"/>
<path d="M531.619 91.4664L525.198 129.248L514.979 129.236L522.626 88.219C523.714 88.5031 524.771 88.9797 525.246 89.7737C525.72 90.5637 528.483 91.1052 531.619 91.4664Z" fill="#2F2E41"/>
<path d="M537.032 94.5014L541.752 92.1504C541.752 92.1504 561.768 116.134 555.86 125.947C549.952 135.759 532.666 129.454 532.666 129.454L537.032 94.5014Z" fill="#F87060"/>
<path d="M506.275 29.8514C514.524 29.8514 521.211 23.1689 521.211 14.9257C521.211 6.68246 514.524 0 506.275 0C498.026 0 491.339 6.68246 491.339 14.9257C491.339 23.1689 498.026 29.8514 506.275 29.8514Z" fill="#FF6584"/>
<path d="M520.79 36.9391C520.798 30.6482 512.182 25.538 501.545 25.525C490.908 25.5121 482.279 30.6014 482.272 36.8923C482.264 43.1832 490.881 48.2934 501.517 48.3064C512.154 48.3193 520.783 43.23 520.79 36.9391Z" fill="#FF6584"/>
<path d="M479.797 134.299C480.883 134.299 481.763 133.42 481.763 132.335C481.763 131.251 480.883 130.371 479.797 130.371C478.712 130.371 477.832 131.251 477.832 132.335C477.832 133.42 478.712 134.299 479.797 134.299Z" fill="#F87060"/>
<path d="M521.853 134.35C522.938 134.35 523.818 133.471 523.818 132.386C523.818 131.302 522.938 130.422 521.853 130.422C520.768 130.422 519.888 131.302 519.888 132.386C519.888 133.471 520.768 134.35 521.853 134.35Z" fill="#F87060"/>
<path d="M419.585 49.5894H0V305.412H419.585V49.5894Z" fill="#3F3D56"/>
<path opacity="0.1" d="M209.793 228.665C234.966 228.665 255.373 208.272 255.373 183.116C255.373 157.96 234.966 137.567 209.793 137.567C184.62 137.567 164.213 157.96 164.213 183.116C164.213 208.272 184.62 228.665 209.793 228.665Z" fill="black"/>
<path opacity="0.1" d="M270.982 183.116C270.982 195.197 275.785 206.782 284.332 215.324C292.88 223.866 304.474 228.665 316.562 228.665V137.567C304.474 137.567 292.88 142.366 284.332 150.908C275.785 159.45 270.982 171.036 270.982 183.116Z" fill="black"/>
<path opacity="0.1" d="M102.398 137.567V228.665C114.487 228.665 126.08 223.866 134.628 215.324C143.176 206.782 147.978 195.197 147.978 183.116C147.978 171.036 143.176 159.45 134.628 150.908C126.08 142.366 114.487 137.567 102.398 137.567Z" fill="black"/>
<path d="M209.793 223.05C234.966 223.05 255.373 202.657 255.373 177.501C255.373 152.345 234.966 131.952 209.793 131.952C184.62 131.952 164.213 152.345 164.213 177.501C164.213 202.657 184.62 223.05 209.793 223.05Z" fill="#F87060"/>
<path d="M270.982 177.501C270.982 189.581 275.785 201.167 284.332 209.709C292.88 218.251 304.474 223.05 316.562 223.05V131.952C304.474 131.952 292.88 136.751 284.332 145.293C275.785 153.835 270.982 165.421 270.982 177.501Z" fill="#F87060"/>
<path d="M102.398 131.952V223.05C114.487 223.05 126.08 218.251 134.628 209.709C143.176 201.167 147.978 189.581 147.978 177.501C147.978 165.421 143.176 153.835 134.628 145.293C126.08 136.751 114.487 131.952 102.398 131.952Z" fill="#F87060"/>
</g>
<defs>
<clipPath id="clip0_3_672">
<rect width="648" height="468" fill="white"/>
</clipPath>
</defs>
</svg>
