<svg xmlns="http://www.w3.org/2000/svg" xmlns:xlink="http://www.w3.org/1999/xlink" version="1.1" x="0px" y="0px" viewBox="0 0 90 112.5" enable-background="new 0 0 90 90" xml:space="preserve"><path d="M78.531,43.853c-2.199-0.224-4.183-0.188-6.265-0.193c-4.063-0.011-8.125-0.88-12.188-0.85  c-9.099,0.079-18.339-0.421-27.47,0.402c-2.697,0.239-5.391,0.442-8.061,0.786c-0.256,0.031-0.51,0.063-0.767,0.099  c-2.505,0.328-5.775,0.136-8.265,0.48c-2.192,0.457-3.891,1.03-5.99,0.874c-0.557-0.108-1.15-0.303-1.484-0.698  c-0.729-0.848-1.068-1.624-0.715-2.271c0.115-0.213,0.313-0.432,0.527-0.629C8.27,41.487,8.77,41.2,9.042,41.175  c4.692-0.5,10.015-0.594,14.255-0.683c2.093-0.042,4.254-0.099,6.896-0.208c6.104-0.156,15.729-0.256,21.839-0.406  c5.339-0.135,10.692,0.609,15.979,1.162c2.01,0.209,3.276,0.209,5.078,0.266c0.301,0.004,0.641,0.015,0.99,0.025  c1.781,0.057,4.989-0.224,6.025,0.317c1.037,0.547,1.761,0.604,2.667,1.609c0.048,0.991-0.317,1.449-0.78,1.615  c-1.079,0.396-2.068,0.839-2.907,0.975c-0.983,0.156-1.776,0.162-1.937-0.213c-0.156-0.376-0.068-0.609,0.088-0.781  c0.271-0.281,0.76-0.589,1.198-0.797L78.531,43.853z"/><path d="M35.744,48.336c1.677-0.088,3.364-0.203,5.036-0.142c2.115,0.074,3.907,0.314,6.006,0.281  c0.708-0.009,5.016,0.005,5.604-0.004c1.833-0.032,3.636-0.026,5.464,0.025c1.213,0.036,2.432,0.109,3.636,0.251  c2.833,0.333,5.76,0.557,8.547,1.192c0.708,0.162,1.432,0.297,2.145,0.167c0.708-0.125,1.792-0.5,1.719-1.276  c-0.083-0.907-0.833-2.036-1.735-2.322c-0.276-0.084-0.911-0.475-1.192-0.533c-0.265-0.052-0.5-0.238-0.745-0.27  c-0.578-0.078-1.011,0.188-1.547,0.318c-0.625,0.151-1.979-0.272-2.625-0.287c-2.281-0.057-3.609,0.525-5.891,0.505  c-1.348-0.01-2.703-0.052-4.052-0.074c-1.295-0.021-2.593,0.017-3.885-0.052c-0.902-0.046-1.792-0.292-2.687-0.312  c-0.767-0.016-1.543,0.125-2.297,0.276c-0.645,0.135-1.355,0.078-2.01,0.083c-0.599,0.011-1.333-0.14-1.891,0  c-0.719,0.183-1.517,0.188-2.25,0.26c-1.38,0.136-2.074-0.109-3.448,0.063c-0.855,0.104-1.486,0.432-2.339,0.313  c-0.437-0.063-1.557,0.219-1.994,0.172c-0.449-0.042-0.48,0.28-0.885,0.333c-0.491,0.061-0.986,0.047-1.475,0.067  c-0.208,0.011-0.766-0.011-0.911,0.152c-0.204,0.224,0.203,0.687,0.509,0.818c1.121,0.489,2.74,0.098,3.922,0.057  C34.895,48.383,35.318,48.362,35.744,48.336z"/><text x="0" y="105" fill="#000000" font-size="5px" font-weight="bold" font-family="'Helvetica Neue', Helvetica, Arial-Unicode, Arial, Sans-serif">Created by Cuputo</text><text x="0" y="110" fill="#000000" font-size="5px" font-weight="bold" font-family="'Helvetica Neue', Helvetica, Arial-Unicode, Arial, Sans-serif">from the Noun Project</text></svg>