<svg width="660" height="790" viewBox="0 0 660 790" fill="none" xmlns="http://www.w3.org/2000/svg">
<g clip-path="url(#clip0_115_697)">
<path d="M649.677 660.455H210.514C207.91 660.452 205.413 659.397 203.571 657.523C201.73 655.648 200.694 653.107 200.691 650.455V10.4993C200.694 7.84824 201.73 5.30659 203.571 3.432C205.413 1.55741 207.91 0.502958 210.514 0.5H649.677C652.281 0.502961 654.778 1.55741 656.62 3.432C658.461 5.30659 659.497 7.84824 659.5 10.4993V650.455C659.497 653.107 658.461 655.648 656.62 657.523C654.778 659.397 652.281 660.452 649.677 660.455Z" fill="#3F3D56"/>
<path d="M640.431 651.044H219.76C217.155 651.041 214.659 649.986 212.817 648.112C210.975 646.237 209.94 643.695 209.937 641.044V19.9104C209.939 17.2594 210.975 14.7177 212.817 12.8431C214.659 10.9685 217.155 9.91409 219.76 9.91113H640.431C643.036 9.91409 645.533 10.9685 647.374 12.8431C649.216 14.7177 650.252 17.2594 650.255 19.9104V641.044C650.252 643.695 649.216 646.237 647.374 648.112C645.533 649.986 643.036 651.041 640.431 651.044Z" fill="#121212"/>
<path d="M334.829 618.475C297.407 568.191 312.248 510.8 290.324 470.763C206.297 317.316 309.764 331.453 426.744 361.294L427.022 364.604C352.569 376.3 303.605 415.304 292.683 471.616C284.195 515.379 299.771 566.692 336.541 616.101L334.829 618.475Z" fill="black"/>
<path d="M417.03 431.335L416.249 428.179C458.019 408.902 454.431 351.485 491.802 338.373C776.488 238.493 495.472 227.23 432.263 174.398C375.738 127.152 314.135 72.2235 235.845 43.9337L236.47 40.7129C315.102 69.1272 385.196 115.701 433.838 171.854C482.726 228.289 504.15 287.73 494.162 339.225C486.286 379.833 459.614 411.684 417.03 431.335Z" fill="black"/>
<path d="M303.325 320.67C284.236 319.135 306.76 306.276 308.268 286.846C308.625 282.224 309.873 277.719 311.94 273.589C314.008 269.458 316.854 265.782 320.318 262.772C323.781 259.761 327.793 257.475 332.125 256.043C336.456 254.611 341.023 254.062 345.563 254.427C350.103 254.793 354.528 256.065 358.585 258.171C362.642 260.277 366.252 263.177 369.208 266.703C372.164 270.23 374.408 274.315 375.813 278.725C377.218 283.135 377.755 287.783 377.394 292.404C375.886 311.835 322.413 322.205 303.325 320.67Z" fill="#3E8989"/>
<path d="M486.606 199.702C482.067 199.337 477.643 198.065 473.587 195.96C469.531 193.855 465.922 190.957 462.966 187.432C460.01 183.907 457.765 179.824 456.36 175.415C454.954 171.007 454.415 166.36 454.773 161.74C456.281 142.31 418.374 129.312 437.463 130.847C456.552 132.382 525.407 147.868 523.9 167.299C523.541 171.919 522.292 176.422 520.224 180.551C518.156 184.68 515.309 188.353 511.846 191.362C508.383 194.371 504.371 196.656 500.041 198.087C495.71 199.518 491.145 200.067 486.606 199.702Z" fill="#3E8989"/>
<path d="M528.386 155.41C530.902 160.722 529.419 166.859 526.097 171.445C522.318 176.662 516.307 179.233 510.141 180.083C503.523 180.901 496.811 180.338 490.413 178.43C484.242 176.617 477.837 172.731 476.564 165.788C475.715 161.161 477.655 156.223 482.375 154.94C484.269 154.453 486.253 154.47 488.138 154.99C490.023 155.511 491.745 156.517 493.136 157.912C497.056 162.064 496.758 168.73 494.267 173.553C491.337 179.226 485.474 182.357 479.447 183.39C472.28 184.618 465.079 182.902 458.338 180.461C451.011 177.808 443.903 174.504 436.723 171.469C422.722 165.551 408.42 159.991 393.364 157.634C370.364 154.034 343.068 159.64 328.988 180.166C321.388 191.246 319.235 205.142 320.871 218.361C322.596 232.302 328.605 245.113 336.563 256.458C340.776 262.359 345.377 267.963 350.333 273.232C351.947 274.829 353.057 276.878 353.524 279.119C353.99 281.36 353.792 283.692 352.953 285.818C348.591 296.727 331.152 293.25 329.852 282.005C329.262 276.895 332.062 271.633 335.562 268.167C339.533 264.386 344.537 261.919 349.913 261.09C361.229 259.167 373.191 263.438 381.841 270.856C391.614 279.237 397.115 291.973 400.013 304.371C403.312 318.487 403.48 333.005 403.794 347.435C404.114 362.2 404.666 377.141 408.828 391.393C412.212 402.864 417.436 413.686 424.29 423.422C437.978 443.036 457.436 457.714 479.855 465.336C485.278 467.128 490.838 468.454 496.479 469.3C498.687 469.633 498.951 466.114 496.752 465.782C472.165 462.072 449.556 448.521 433.37 429.475C425.259 419.972 418.848 409.095 414.43 397.337C409.152 383.176 407.813 368.134 407.382 353.104C406.942 337.754 407.182 322.265 404.163 307.143C401.494 293.776 396.258 280.239 386.563 270.499C378.013 261.911 365.783 256.598 353.695 257.168C342.448 257.698 330.422 264.004 327.08 275.685C325.512 281.166 326.509 287.05 330.62 291.121C332.964 293.384 335.877 294.942 339.038 295.622C342.198 296.302 345.482 296.077 348.525 294.973C351.831 293.517 354.487 290.862 355.975 287.523C357.464 284.184 357.679 280.401 356.578 276.91C355.653 274.346 354.167 272.031 352.231 270.14C342.084 259.111 332.773 246.768 327.721 232.406C323.008 219.01 322.042 203.6 327.477 190.271C337.766 165.037 367.627 157.454 391.951 160.981C407.87 163.289 422.943 169.424 437.688 175.699C445.218 178.904 452.699 182.465 460.508 184.918C467.5 187.114 475.003 188.217 482.207 186.416C488.494 184.844 494.272 181.122 497.318 175.17C500.084 169.763 500.562 162.902 497.272 157.605C492.515 149.946 479.381 148.223 474.595 156.825C471.419 162.533 472.979 169.842 477.15 174.576C481.826 179.883 488.829 182.05 495.53 183.145C508.193 185.212 523.786 183.587 530.561 170.856C533.352 165.611 534.105 159.357 531.509 153.874C531.299 153.469 530.943 153.162 530.516 153.019C530.089 152.876 529.624 152.907 529.219 153.106C528.814 153.306 528.5 153.657 528.345 154.087C528.19 154.517 528.205 154.991 528.386 155.41Z" fill="#3F3D56"/>
<path d="M487.654 470.019C467.412 468.391 413.288 496.585 398.636 484.455C396.806 482.951 395.035 481.373 393.323 479.721C387.721 474.373 382.774 468.357 378.588 461.803C377.863 460.694 377.173 459.577 376.507 458.449C374.159 454.445 372.092 450.276 370.322 445.975C370.012 445.194 369.702 444.402 369.393 443.611C361.148 421.921 360.73 397.956 368.214 375.982C375.698 354.008 390.598 335.45 410.264 323.609C429.929 311.769 453.083 307.414 475.606 311.321C498.13 315.227 518.561 327.141 533.264 344.942C534.05 345.879 534.81 346.837 535.557 347.817C543.021 357.547 548.608 368.627 552.024 380.472C552.023 380.483 552.034 380.484 552.033 380.496C557.128 398.258 557.211 417.12 552.272 434.928L552.27 434.951C552.159 435.343 552.047 435.736 551.924 436.127C539.281 479.681 533.911 473.738 487.654 470.019Z" fill="#3E8989"/>
<path d="M370.759 446.021C370.612 446.024 370.465 446.008 370.322 445.975C370.012 445.194 369.702 444.402 369.393 443.61C369.523 443.279 369.75 442.995 370.043 442.797C370.336 442.599 370.681 442.497 371.032 442.503C372.784 442.497 374.53 442.293 376.238 441.895C391.063 438.485 399.705 423.037 403.407 409.245C407.951 392.37 408.013 374.237 416.226 358.495C419.416 352.026 424.107 346.445 429.892 342.235C436.244 337.853 443.963 336.015 451.565 337.074C469.452 339.48 482.507 353.499 499.113 359.271C505.953 361.65 513.234 362.236 520.076 359.529C525.888 357.235 531.19 352.705 532.39 346.194C532.43 345.93 532.53 345.68 532.682 345.462C532.833 345.245 533.033 345.067 533.264 344.942C534.05 345.879 534.81 346.837 535.557 347.817C535.29 348.993 534.902 350.136 534.399 351.229C531.481 357.461 525.662 361.489 519.327 363.505C511.993 365.83 504.364 364.945 497.228 362.341C480.588 356.271 466.902 341.27 448.53 340.335C432.606 339.527 421.602 352.85 416.304 366.749C409.752 383.947 410.725 403.225 403.37 420.169C397.583 433.499 385.985 445.96 370.759 446.021Z" fill="#3F3D56"/>
<path d="M378.588 461.803C377.863 460.694 377.173 459.577 376.507 458.449C376.668 458.318 376.855 458.224 377.055 458.173C377.255 458.122 377.463 458.115 377.666 458.153C392.524 459.938 407.49 455.878 419.505 446.802C424.776 442.878 429.358 438.076 433.058 432.598C436.899 426.865 439.22 420.42 441.823 414.057C444.384 407.796 447.391 401.465 452.485 396.93C457.678 392.309 464.378 390.369 471.165 390.16C487.247 389.671 501.271 398.977 516.923 400.896C523.905 401.752 530.836 400.729 536.813 396.76C541.972 393.328 545.728 387.954 545.486 381.503C545.397 379.372 548.446 379.511 548.892 381.388C548.922 381.517 548.939 381.649 548.943 381.781C549.218 389.285 544.686 395.706 538.72 399.675C531.788 404.298 523.689 405.44 515.583 404.269C499.901 401.994 485.406 392.332 469.179 393.788C465.774 393.988 462.448 394.914 459.417 396.506C456.385 398.098 453.716 400.32 451.583 403.029C447.312 408.61 445.056 415.426 442.421 421.893C439.921 428.356 436.425 434.373 432.065 439.717C427.652 444.934 422.449 449.4 416.651 452.945C405.247 460.031 391.885 463.14 378.588 461.803Z" fill="#3F3D56"/>
<path d="M398.636 484.455C396.805 482.951 395.034 481.373 393.323 479.721C402.152 482.009 411.353 482.399 420.339 480.867C431.644 479.021 442.31 474.302 451.348 467.146C455.849 463.559 459.819 459.332 463.138 454.594C466.921 449.175 470.226 443.187 475.93 439.598C488.312 431.814 503.132 438.93 515.495 442.756C521.947 444.762 528.878 446.121 535.45 443.9C540.546 442.174 545.492 438.347 546.498 432.693C546.891 430.471 550.36 430.738 549.955 432.971C549.876 433.389 549.785 433.807 549.684 434.224C548.094 440.362 543.16 444.792 537.335 446.943C529.734 449.73 521.86 448.424 514.309 446.083C501.891 442.228 485.661 434.303 474.426 445.236C469.686 449.846 466.778 456.091 462.504 461.128C458.691 465.643 454.292 469.609 449.428 472.916C434.49 483.044 416.387 487.157 398.636 484.455Z" fill="#3F3D56"/>
<path d="M165.165 393.843L167.331 414.291L166.056 441.103L224.401 434.047L229.884 393.843L222.899 393.913L165.165 393.843Z" fill="#FFB6B6"/>
<path d="M234.784 330.477L216.745 323.686L209.037 312.292L181.309 309.469L164.206 320.623L149.867 328.055L150.113 366.861L166.598 436.352L225.538 434L233.296 384.446C233.296 384.446 251.32 359.805 231.91 345.693L234.784 330.477Z" fill="#F87060"/>
<path d="M134.902 765.081H147.659L153.729 714.997H134.902V765.081Z" fill="#FFB6B6"/>
<path d="M130.739 756.187L151.119 754.949V763.837L170.494 777.458C171.451 778.13 172.172 779.097 172.551 780.216C172.93 781.335 172.948 782.548 172.602 783.678C172.256 784.809 171.564 785.797 170.627 786.498C169.69 787.2 168.558 787.578 167.395 787.578H143.132L138.95 778.786L137.317 787.578H128.169L130.739 756.187Z" fill="#2F2E41"/>
<path d="M206.555 765.081H219.312L225.381 714.997H206.555V765.081Z" fill="#FFB6B6"/>
<path d="M202.392 756.187L222.771 754.949V763.837L242.147 777.458C243.104 778.13 243.824 779.097 244.204 780.216C244.583 781.335 244.601 782.548 244.255 783.678C243.909 784.809 243.217 785.797 242.28 786.498C241.343 787.2 240.211 787.578 239.048 787.578H214.785L210.603 778.786L208.97 787.578H199.822L202.392 756.187Z" fill="#2F2E41"/>
<path d="M129.399 721.891H129.537L131.99 640.457C130.403 637.34 129.597 633.872 129.645 630.361C129.693 626.85 130.593 623.406 132.265 620.335L132.616 619.688L131.705 615.391C130.536 609.87 131.073 604.116 133.242 598.918L135.531 522.956C127.354 469.017 166.32 433.84 166.32 433.84H224.692L237.224 477.667C245.509 559.827 244.006 639.889 230.859 717.456L231.217 717.64C232.508 718.094 233.061 719.913 232.454 721.705C231.847 723.496 230.308 724.581 229.018 724.128L198.19 723.036C196.9 722.583 196.346 720.763 196.954 718.971C197.561 717.18 199.1 716.095 200.39 716.549L202.486 717.628L198.016 639.048L198.512 624.694L197.49 608.411L192.765 535.168L174.88 625.236L156.61 722.797C157.114 723.262 157.468 723.871 157.624 724.544C157.781 725.217 157.734 725.923 157.488 726.568C157.243 727.214 156.811 727.768 156.249 728.158C155.688 728.548 155.024 728.756 154.344 728.754H129.399C128.504 728.754 127.647 728.392 127.015 727.749C126.383 727.105 126.027 726.232 126.027 725.322C126.027 724.412 126.383 723.539 127.015 722.896C127.647 722.252 128.504 721.891 129.399 721.891Z" fill="#2F2E41"/>
<path d="M123.33 491.182C122.216 490.089 121.351 488.76 120.796 487.29C120.241 485.82 120.01 484.244 120.118 482.673C120.226 481.102 120.671 479.574 121.422 478.197C122.173 476.82 123.212 475.628 124.464 474.703L140.017 377.533L158.257 384.065L139.774 477.671C141.16 479.916 141.688 482.601 141.26 485.216C140.831 487.832 139.474 490.196 137.447 491.861C135.42 493.527 132.864 494.377 130.262 494.252C127.66 494.127 125.193 493.034 123.33 491.182Z" fill="#FFB6B6"/>
<path d="M152.32 327.968C152.32 327.968 147.088 325.961 145.19 337.863C143.669 347.391 128.829 404.903 130.233 418.229C128.491 418.85 127.002 420.043 126 421.621C124.998 423.198 124.54 425.07 124.698 426.941L152.063 427.084C156.253 422.432 156.796 416.82 154.773 415.44L158.559 398.437L176.388 343.579L156.127 329.351L152.32 327.968Z" fill="#F87060"/>
<path d="M249.314 495.318C250.517 494.327 251.49 493.079 252.168 491.663C252.845 490.247 253.209 488.697 253.234 487.123C253.259 485.548 252.944 483.987 252.312 482.549C251.68 481.112 250.747 479.832 249.577 478.802L244.029 381.062L223.572 385.54L234.073 480.417C232.503 482.533 231.749 485.161 231.955 487.805C232.161 490.448 233.313 492.922 235.192 494.759C237.07 496.596 239.546 497.667 242.149 497.77C244.752 497.873 247.301 497.001 249.314 495.318Z" fill="#FFB6B6"/>
<path d="M234.23 330.171C234.23 330.171 239.612 328.63 240.497 340.654C241.206 350.28 251.13 408.878 248.604 422.032C250.287 422.803 251.67 424.122 252.535 425.781C253.4 427.441 253.698 429.346 253.382 431.196L226.107 428.942C222.326 423.94 222.259 418.301 224.391 417.104L222.057 399.832L208.931 343.616L230.32 331.215L234.23 330.171Z" fill="#F87060"/>
<path d="M183.007 307.464C198.246 307.464 210.6 294.889 210.6 279.377C210.6 263.865 198.246 251.29 183.007 251.29C167.768 251.29 155.414 263.865 155.414 279.377C155.414 294.889 167.768 307.464 183.007 307.464Z" fill="#FFB8B8"/>
<path d="M128.169 338.406C122.329 336.299 116.49 334.189 110.651 332.075C111.658 330.356 112.939 328.82 114.443 327.532C120.003 322.806 127.676 321.952 134.735 320.358C141.804 318.764 149.478 315.496 152.062 308.619C154.747 301.468 150.854 293.748 148.594 286.461C145.429 276.293 145.496 264.941 149.735 255.194C153.975 245.447 162.588 237.545 172.812 235.222C183.036 232.911 194.591 236.68 200.878 245.197C204.928 243.96 209.283 244.275 213.121 246.084C216.958 247.892 220.012 251.068 221.706 255.012C223.172 258.746 223.216 263.244 221.035 266.603C218.854 269.962 214.189 271.681 210.677 269.814L212.713 264.554C206.415 266.728 202.321 278.32 203.171 285.038C204.01 291.744 207.858 297.62 211.762 303.096C215.666 308.573 219.827 314.107 221.505 320.654C223.921 330.071 220.655 340.364 214.614 347.913C208.574 355.462 200.061 360.586 191.247 364.355C184.648 367.179 177.791 369.33 170.776 370.777C172.029 368.295 173.271 365.813 174.524 363.33L159.657 372.485C156.783 372.77 153.885 372.94 150.988 372.997C142.554 373.145 133.952 372.246 126.233 368.819C118.504 365.38 111.714 359.152 108.917 351.056C108.021 348.437 107.597 345.675 107.665 342.903C114.499 341.4 121.334 339.901 128.169 338.406Z" fill="#2F2E41"/>
<path d="M100.341 756.64C99.4856 756.68 98.6388 756.451 97.9154 755.985C97.192 755.519 96.6269 754.838 96.2966 754.033C95.9663 753.229 95.8868 752.341 96.0689 751.49C96.2509 750.638 96.6858 749.864 97.3145 749.272C97.4198 748.846 97.4954 748.541 97.6007 748.115C97.563 748.022 97.5251 747.929 97.487 747.837C96.6253 745.765 95.1815 743.999 93.3368 742.76C91.4922 741.521 89.3289 740.864 87.1188 740.872C84.9087 740.881 82.7504 741.554 80.9148 742.807C79.0792 744.06 77.6483 745.837 76.8018 747.915C73.4187 756.209 69.1113 764.517 68.0508 773.287C67.5837 777.163 67.7807 781.093 68.6331 784.901C60.687 767.257 56.5608 748.08 56.5343 728.671C56.5326 723.8 56.7984 718.933 57.3305 714.093C57.7703 710.125 58.3804 706.185 59.1609 702.273C63.4198 681.049 72.564 661.156 85.8423 644.228C92.269 640.659 97.4664 635.17 100.734 628.501C101.918 626.104 102.755 623.545 103.218 620.904C102.493 621.001 101.756 621.061 101.031 621.11C100.805 621.122 100.568 621.134 100.342 621.146L100.257 621.15C99.46 621.186 98.6698 620.987 97.9815 620.577C97.2932 620.167 96.7359 619.563 96.3769 618.838C96.0179 618.113 95.8724 617.298 95.9579 616.491C96.0434 615.684 96.3562 614.919 96.8588 614.289C97.1719 613.897 97.4851 613.505 97.7985 613.113C98.274 612.508 98.7612 611.915 99.2366 611.31C99.2914 611.253 99.343 611.192 99.3911 611.129C99.9379 610.439 100.484 609.762 101.031 609.072C100.033 607.496 98.6911 606.175 97.1092 605.213C91.6303 601.947 84.0715 604.209 80.1138 609.254C76.1443 614.298 75.3956 621.376 76.7741 627.679C78.1299 633.042 80.3725 638.131 83.406 642.728C83.1088 643.115 82.7998 643.49 82.5027 643.877C77.0713 650.987 72.3374 658.621 68.3689 666.67C69.334 657.652 68.1822 648.531 65.0082 640.055C61.7913 632.155 55.7619 625.503 50.4522 618.674C44.0745 610.471 30.9963 614.051 29.8727 624.449C29.8618 624.55 29.8512 624.65 29.8408 624.751C30.6295 625.204 31.4015 625.684 32.1568 626.193C33.1057 626.838 33.841 627.76 34.2663 628.838C34.6916 629.916 34.7871 631.1 34.5402 632.234C34.2934 633.368 33.7157 634.4 32.8829 635.194C32.0501 635.989 31.0011 636.508 29.8732 636.685L29.7577 636.703C30.0386 639.597 30.5352 642.464 31.2432 645.281C33.2948 653.144 36.9201 660.491 41.8918 666.861C46.8635 673.231 53.0745 678.487 60.1353 682.3C60.5989 682.542 61.0506 682.784 61.5141 683.014C57.5269 694.515 55.026 706.496 54.0741 718.654C53.5352 725.826 53.567 733.032 54.1692 740.2L54.1335 739.946C52.6121 731.975 48.4352 724.784 42.308 719.585C33.2077 711.976 20.3506 709.174 10.533 703.057C9.48959 702.375 8.27637 702.011 7.03645 702.008C5.79653 702.005 4.58163 702.363 3.53499 703.04C2.48836 703.716 1.65364 704.684 1.12934 705.827C0.605035 706.971 0.412996 708.244 0.575863 709.495C0.589014 709.584 0.60242 709.673 0.616034 709.762C2.07955 710.369 3.50448 711.067 4.88262 711.855C5.67128 712.308 6.44332 712.788 7.19865 713.297C8.14757 713.942 8.88283 714.864 9.30812 715.942C9.73341 717.02 9.82887 718.204 9.58202 719.338C9.33517 720.472 8.75752 721.504 7.92473 722.298C7.09195 723.092 6.04289 723.612 4.91499 723.789L4.79942 723.807C4.71621 723.819 4.64493 723.831 4.56185 723.844C7.06247 729.921 10.5722 735.515 14.9372 740.381C20.3296 746.271 26.847 750.977 34.0898 754.212C41.3325 757.447 49.1481 759.142 57.0572 759.193H57.0692C59.2161 768.69 62.3269 777.934 66.3513 786.776H99.51C99.6289 786.401 99.7358 786.014 99.8428 785.639C96.7736 785.835 93.6922 785.648 90.6676 785.082C93.1278 782.009 95.5879 778.912 98.0481 775.839C98.103 775.782 98.1546 775.721 98.2026 775.658C99.4505 774.085 100.71 772.525 101.958 770.952L101.959 770.95C102.025 766.129 101.482 761.32 100.342 756.64L100.341 756.64Z" fill="#252525"/>
<path d="M323.058 789.138L4.37657 789.5C4.01162 789.5 3.6616 789.352 3.40354 789.09C3.14548 788.827 3.00049 788.471 3.00049 788.099C3.00049 787.728 3.14548 787.372 3.40354 787.109C3.6616 786.846 4.01162 786.699 4.37657 786.699L323.058 786.337C323.423 786.337 323.773 786.485 324.031 786.747C324.289 787.01 324.434 787.366 324.434 787.738C324.434 788.109 324.289 788.465 324.031 788.728C323.773 788.991 323.423 789.138 323.058 789.138Z" fill="#CACACA"/>
</g>
<defs>
<clipPath id="clip0_115_697">
<rect width="659" height="789" fill="white" transform="translate(0.5 0.5)"/>
</clipPath>
</defs>
</svg>
